<?xml version="1.0" encoding="UTF-8" standalone="no"?>
<!-- Created with Inkscape (http://www.inkscape.org/) -->

<svg
   xmlns:dc="http://purl.org/dc/elements/1.1/"
   xmlns:cc="http://creativecommons.org/ns#"
   xmlns:rdf="http://www.w3.org/1999/02/22-rdf-syntax-ns#"
   xmlns:svg="http://www.w3.org/2000/svg"
   xmlns="http://www.w3.org/2000/svg"
   xmlns:sodipodi="http://sodipodi.sourceforge.net/DTD/sodipodi-0.dtd"
   xmlns:inkscape="http://www.inkscape.org/namespaces/inkscape"
   width="115mm"
   height="30mm"
   viewBox="0 0 407.4803 106.29921"
   id="svg2"
   version="1.1"
   inkscape:version="0.91 r13725"
   sodipodi:docname="compter_logo_path.svg">
  <defs
     id="defs4" />
  <sodipodi:namedview
     id="base"
     pagecolor="#ffffff"
     bordercolor="#666666"
     borderopacity="1.0"
     inkscape:pageopacity="0.0"
     inkscape:pageshadow="2"
     inkscape:zoom="1.8097711"
     inkscape:cx="169.77202"
     inkscape:cy="46.044426"
     inkscape:document-units="px"
     inkscape:current-layer="layer1"
     showgrid="false"
     showguides="true"
     inkscape:guide-bbox="true"
     inkscape:window-width="1920"
     inkscape:window-height="1138"
     inkscape:window-x="-8"
     inkscape:window-y="-8"
     inkscape:window-maximized="1" />
  <metadata
     id="metadata7">
    <rdf:RDF>
      <cc:Work
         rdf:about="">
        <dc:format>image/svg+xml</dc:format>
        <dc:type
           rdf:resource="http://purl.org/dc/dcmitype/StillImage" />
        <dc:title></dc:title>
      </cc:Work>
    </rdf:RDF>
  </metadata>
  <g
     inkscape:label="Layer 1"
     inkscape:groupmode="layer"
     id="layer1"
     transform="translate(0,-946.06299)">
    <g
       id="g4168"
       transform="translate(-133.52203,522.37339)">
      <g
         style="font-style:normal;font-weight:normal;font-size:20px;line-height:125%;font-family:sans-serif;text-align:start;letter-spacing:0px;word-spacing:0px;text-anchor:start;fill:#000000;fill-opacity:1;stroke:none;stroke-width:1px;stroke-linecap:butt;stroke-linejoin:miter;stroke-opacity:1"
         id="text4136">
        <path
           d="m 195.28828,517.84491 0,-14.31641 1.94336,0 7.51953,11.24024 0,-11.24024 1.81641,0 0,14.31641 -1.94336,0 -7.51953,-11.25 0,11.25 -1.81641,0 z"
           style="font-style:normal;font-variant:normal;font-weight:normal;font-stretch:normal;font-family:Arial;-inkscape-font-specification:Arial;text-align:start;text-anchor:start"
           id="path4180" />
        <path
           d="m 216.33321,517.84491 0,-1.52344 q -1.21094,1.75781 -3.29102,1.75781 -0.91797,0 -1.71875,-0.35156 -0.79102,-0.35156 -1.18164,-0.8789 -0.38086,-0.53711 -0.53711,-1.3086 -0.10742,-0.51758 -0.10742,-1.64062 l 0,-6.42578 1.75781,0 0,5.75195 q 0,1.37695 0.10742,1.85547 0.16602,0.69336 0.70313,1.09375 0.53711,0.39062 1.32812,0.39062 0.79102,0 1.48438,-0.40039 0.69336,-0.41015 0.97656,-1.10351 0.29297,-0.70313 0.29297,-2.03125 l 0,-5.55664 1.75781,0 0,10.37109 -1.57226,0 z"
           style="font-style:normal;font-variant:normal;font-weight:normal;font-stretch:normal;font-family:Arial;-inkscape-font-specification:Arial;text-align:start;text-anchor:start"
           id="path4182" />
        <path
           d="m 227.43672,514.04608 1.72852,0.22461 q -0.28321,1.78711 -1.45508,2.80274 -1.16211,1.00585 -2.86133,1.00585 -2.12891,0 -3.42773,-1.38671 -1.28907,-1.39649 -1.28907,-3.99414 0,-1.67969 0.55664,-2.93946 0.55665,-1.25976 1.68946,-1.88476 1.14258,-0.63477 2.48047,-0.63477 1.68945,0 2.76367,0.85938 1.07422,0.84961 1.37695,2.42187 l -1.70898,0.26367 q -0.24414,-1.04492 -0.86914,-1.57226 -0.61524,-0.52735 -1.49414,-0.52735 -1.32813,0 -2.15821,0.95703 -0.83008,0.94727 -0.83008,3.00782 0,2.08984 0.80079,3.03711 0.80078,0.94726 2.08984,0.94726 1.03516,0 1.72852,-0.63476 0.69335,-0.63477 0.8789,-1.95313 z"
           style="font-style:normal;font-variant:normal;font-weight:normal;font-stretch:normal;font-family:Arial;-inkscape-font-specification:Arial;text-align:start;text-anchor:start"
           id="path4184" />
        <path
           d="m 230.63008,517.84491 0,-14.31641 1.75781,0 0,14.31641 -1.75781,0 z"
           style="font-style:normal;font-variant:normal;font-weight:normal;font-stretch:normal;font-family:Arial;-inkscape-font-specification:Arial;text-align:start;text-anchor:start"
           id="path4186" />
        <path
           d="m 242.22188,514.50507 1.8164,0.22461 q -0.42968,1.59179 -1.59179,2.4707 -1.16211,0.8789 -2.96875,0.8789 -2.27539,0 -3.61328,-1.39648 -1.32813,-1.40625 -1.32813,-3.93555 0,-2.61718 1.34766,-4.0625 1.34765,-1.44531 3.49609,-1.44531 2.08008,0 3.39844,1.41602 1.31836,1.41601 1.31836,3.98437 0,0.15625 -0.01,0.46875 l -7.73437,0 q 0.0976,1.70899 0.96679,2.61719 0.86914,0.9082 2.16797,0.9082 0.9668,0 1.65039,-0.50781 0.6836,-0.50781 1.08399,-1.62109 z m -5.77149,-2.8418 5.79102,0 q -0.11719,-1.30859 -0.66406,-1.96289 -0.83985,-1.01563 -2.17774,-1.01563 -1.21094,0 -2.04101,0.81055 -0.82032,0.81055 -0.90821,2.16797 z"
           style="font-style:normal;font-variant:normal;font-weight:normal;font-stretch:normal;font-family:Arial;-inkscape-font-specification:Arial;text-align:start;text-anchor:start"
           id="path4188" />
        <path
           d="m 245.60078,512.65936 q 0,-2.88086 1.60157,-4.26758 1.33789,-1.15234 3.26172,-1.15234 2.13867,0 3.49609,1.40625 1.35742,1.39649 1.35742,3.86719 0,2.00195 -0.60547,3.1543 -0.5957,1.14257 -1.74804,1.77734 -1.14258,0.63476 -2.5,0.63476 -2.17774,0 -3.5254,-1.39648 -1.33789,-1.39648 -1.33789,-4.02344 z m 1.80664,0 q 0,1.99219 0.86915,2.98828 0.86914,0.98633 2.1875,0.98633 1.30859,0 2.17773,-0.99609 0.86914,-0.9961 0.86914,-3.03711 0,-1.92383 -0.87891,-2.91016 -0.86914,-0.99609 -2.16796,-0.99609 -1.31836,0 -2.1875,0.98633 -0.86915,0.98633 -0.86915,2.97851 z"
           style="font-style:normal;font-variant:normal;font-weight:normal;font-stretch:normal;font-family:Arial;-inkscape-font-specification:Arial;text-align:start;text-anchor:start"
           id="path4190" />
        <path
           d="m 261.22578,516.27264 0.25391,1.55274 q -0.74219,0.15625 -1.32812,0.15625 -0.95704,0 -1.48438,-0.30274 -0.52734,-0.30273 -0.74219,-0.79101 -0.21484,-0.49805 -0.21484,-2.08008 l 0,-5.9668 -1.28906,0 0,-1.36718 1.28906,0 0,-2.56836 1.74805,-1.05469 0,3.62305 1.76757,0 0,1.36718 -1.76757,0 0,6.06446 q 0,0.75195 0.0879,0.96679 0.0976,0.21485 0.30273,0.3418 0.21484,0.12695 0.60547,0.12695 0.29297,0 0.77148,-0.0684 z"
           style="font-style:normal;font-variant:normal;font-weight:normal;font-stretch:normal;font-family:Arial;-inkscape-font-specification:Arial;text-align:start;text-anchor:start"
           id="path4192" />
        <path
           d="m 262.94453,505.54999 0,-2.02149 1.75782,0 0,2.02149 -1.75782,0 z m 0,12.29492 0,-10.37109 1.75782,0 0,10.37109 -1.75782,0 z"
           style="font-style:normal;font-variant:normal;font-weight:normal;font-stretch:normal;font-family:Arial;-inkscape-font-specification:Arial;text-align:start;text-anchor:start"
           id="path4194" />
        <path
           d="m 274.11641,517.84491 0,-1.30859 q -0.98633,1.54296 -2.90039,1.54296 -1.24024,0 -2.28516,-0.68359 -1.03515,-0.68359 -1.61133,-1.9043 -0.5664,-1.23046 -0.5664,-2.82226 0,-1.55274 0.51758,-2.8125 0.51757,-1.26953 1.55273,-1.94336 1.03516,-0.67383 2.31445,-0.67383 0.9375,0 1.66993,0.40039 0.73242,0.39063 1.1914,1.02539 l 0,-5.13672 1.74805,0 0,14.31641 -1.63086,0 z m -5.55664,-5.17578 q 0,1.99219 0.83984,2.97851 0.83985,0.98633 1.98242,0.98633 1.15235,0 1.95313,-0.9375 0.81055,-0.94726 0.81055,-2.88086 0,-2.1289 -0.82032,-3.125 -0.82031,-0.99609 -2.02148,-0.99609 -1.17188,0 -1.96289,0.95703 -0.78125,0.95703 -0.78125,3.01758 z"
           style="font-style:normal;font-variant:normal;font-weight:normal;font-stretch:normal;font-family:Arial;-inkscape-font-specification:Arial;text-align:start;text-anchor:start"
           id="path4196" />
        <path
           d="m 285.62032,514.50507 1.8164,0.22461 q -0.42969,1.59179 -1.5918,2.4707 -1.1621,0.8789 -2.96875,0.8789 -2.27539,0 -3.61328,-1.39648 -1.32812,-1.40625 -1.32812,-3.93555 0,-2.61718 1.34765,-4.0625 1.34766,-1.44531 3.4961,-1.44531 2.08008,0 3.39844,1.41602 1.31836,1.41601 1.31836,3.98437 0,0.15625 -0.01,0.46875 l -7.73438,0 q 0.0977,1.70899 0.9668,2.61719 0.86914,0.9082 2.16797,0.9082 0.9668,0 1.65039,-0.50781 0.68359,-0.50781 1.08399,-1.62109 z m -5.77149,-2.8418 5.79102,0 q -0.11719,-1.30859 -0.66407,-1.96289 -0.83984,-1.01563 -2.17773,-1.01563 -1.21094,0 -2.04102,0.81055 -0.82031,0.81055 -0.9082,2.16797 z"
           style="font-style:normal;font-variant:normal;font-weight:normal;font-stretch:normal;font-family:Arial;-inkscape-font-specification:Arial;text-align:start;text-anchor:start"
           id="path4198" />
        <path
           d="m 295.21016,517.84491 0,-14.31641 1.75781,0 0,8.16407 4.16016,-4.21875 2.27539,0 -3.96485,3.84765 4.36524,6.52344 -2.16797,0 -3.42773,-5.30273 -1.24024,1.1914 0,4.11133 -1.75781,0 z"
           style="font-style:normal;font-variant:normal;font-weight:normal;font-stretch:normal;font-family:Arial;-inkscape-font-specification:Arial;text-align:start;text-anchor:start"
           id="path4200" />
        <path
           d="m 304.5168,513.54803 0,-1.76757 5.40039,0 0,1.76757 -5.40039,0 z"
           style="font-style:normal;font-variant:normal;font-weight:normal;font-stretch:normal;font-family:Arial;-inkscape-font-specification:Arial;text-align:start;text-anchor:start"
           id="path4202" />
        <path
           d="m 311.88008,517.84491 0,-10.37109 1.57227,0 0,1.45507 q 0.48828,-0.76171 1.29882,-1.2207 0.81055,-0.46875 1.84571,-0.46875 1.15234,0 1.88476,0.47852 0.74219,0.47851 1.04493,1.33789 1.23046,-1.81641 3.20312,-1.81641 1.54297,0 2.37305,0.85938 0.83008,0.84961 0.83008,2.62695 l 0,7.11914 -1.74805,0 0,-6.5332 q 0,-1.05469 -0.17578,-1.51368 -0.16602,-0.46875 -0.61524,-0.75195 -0.44922,-0.2832 -1.05468,-0.2832 -1.09375,0 -1.81641,0.73242 -0.72266,0.72266 -0.72266,2.32422 l 0,6.02539 -1.75781,0 0,-6.73828 q 0,-1.17188 -0.42969,-1.75781 -0.42968,-0.58594 -1.40625,-0.58594 -0.74218,0 -1.37695,0.39062 -0.625,0.39063 -0.9082,1.14258 -0.28321,0.75195 -0.28321,2.16797 l 0,5.38086 -1.75781,0 z"
           style="font-style:normal;font-variant:normal;font-weight:normal;font-stretch:normal;font-family:Arial;-inkscape-font-specification:Arial;text-align:start;text-anchor:start"
           id="path4204" />
        <path
           d="m 335.69844,514.50507 1.81641,0.22461 q -0.42969,1.59179 -1.5918,2.4707 -1.16211,0.8789 -2.96875,0.8789 -2.27539,0 -3.61328,-1.39648 -1.32813,-1.40625 -1.32813,-3.93555 0,-2.61718 1.34766,-4.0625 1.34766,-1.44531 3.49609,-1.44531 2.08008,0 3.39844,1.41602 1.31836,1.41601 1.31836,3.98437 0,0.15625 -0.01,0.46875 l -7.73437,0 q 0.0977,1.70899 0.9668,2.61719 0.86914,0.9082 2.16797,0.9082 0.96679,0 1.65039,-0.50781 0.68359,-0.50781 1.08398,-1.62109 z m -5.77148,-2.8418 5.79101,0 q -0.11719,-1.30859 -0.66406,-1.96289 -0.83984,-1.01563 -2.17774,-1.01563 -1.21093,0 -2.04101,0.81055 -0.82031,0.81055 -0.9082,2.16797 z"
           style="font-style:normal;font-variant:normal;font-weight:normal;font-stretch:normal;font-family:Arial;-inkscape-font-specification:Arial;text-align:start;text-anchor:start"
           id="path4206" />
        <path
           d="m 339.71211,517.84491 0,-10.37109 1.58203,0 0,1.57226 q 0.60547,-1.10351 1.11328,-1.45508 0.51758,-0.35156 1.13282,-0.35156 0.88867,0 1.80664,0.56641 l -0.60547,1.63086 q -0.64453,-0.38086 -1.28906,-0.38086 -0.57618,0 -1.03516,0.35156 -0.45898,0.3418 -0.6543,0.95703 -0.29297,0.9375 -0.29297,2.05078 l 0,5.42969 -1.75781,0 z"
           style="font-style:normal;font-variant:normal;font-weight:normal;font-stretch:normal;font-family:Arial;-inkscape-font-specification:Arial;text-align:start;text-anchor:start"
           id="path4208" />
      </g>
      <g
         style="font-style:normal;font-weight:normal;font-size:20px;line-height:125%;font-family:sans-serif;letter-spacing:0px;word-spacing:0px;fill:#000000;fill-opacity:1;stroke:none;stroke-width:1px;stroke-linecap:butt;stroke-linejoin:miter;stroke-opacity:1"
         id="text4144">
        <path
           d="m 194.04929,467.3667 20.75195,0.53711 q -2.05078,16.11328 -11.18164,24.90234 -9.08203,8.78906 -23.73047,8.78906 -14.89258,0 -24.95117,-9.96093 -10.00977,-10.00977 -10.00977,-24.80469 0,-14.89258 10.20508,-25.04883 10.25391,-10.15625 25.24414,-10.15625 14.74609,0 24.60938,9.96094 6.83593,6.88476 9.66796,19.18945 l -21.24023,1.41602 q -3.56445,-10.9375 -13.52539,-10.9375 -6.34766,0 -10.49805,4.39453 -4.10156,4.39453 -4.10156,11.18164 0,6.54297 4.05273,10.83984 4.05274,4.24805 10.25391,4.24805 6.29883,0 10.00977,-3.75977 3.75976,-3.75976 4.44336,-10.79101 z"
           style="font-style:normal;font-variant:normal;font-weight:normal;font-stretch:normal;font-size:100px;font-family:'Bauhaus 93';-inkscape-font-specification:'Bauhaus 93, ';text-align:center;text-anchor:middle"
           id="path4211" />
        <path
           d="m 245.90475,450.22803 q 10.35157,0 17.72461,7.4707 7.42188,7.42188 7.42188,17.82227 0,10.54687 -7.51953,17.96875 -7.47071,7.42187 -18.06641,7.42187 -10.5957,0 -18.11523,-7.42187 -7.51953,-7.47071 -7.51953,-17.96875 0,-10.69336 7.51953,-17.96875 7.51953,-7.32422 18.55468,-7.32422 z m -0.48828,18.01758 q -2.92968,0 -4.98047,2.14843 -2.05078,2.09961 -2.05078,5.17578 0,3.02735 2.05078,5.17579 2.09961,2.14843 4.98047,2.14843 2.92969,0 4.98047,-2.14843 2.09961,-2.14844 2.09961,-5.17579 0,-3.07617 -2.05078,-5.17578 -2.05078,-2.14843 -5.0293,-2.14843 z"
           style="font-style:normal;font-variant:normal;font-weight:normal;font-stretch:normal;font-size:100px;font-family:'Bauhaus 93';-inkscape-font-specification:'Bauhaus 93, ';text-align:center;text-anchor:middle"
           id="path4213" />
        <path
           d="m 345.4653,499.93506 -18.26172,0 0,-26.26953 q 0,-3.02735 -0.63476,-4.19922 -0.63477,-1.17188 -2.29492,-1.17188 -3.07618,0 -3.07618,5.41993 l 0,26.2207 -18.26172,0 0,-26.26953 q 0,-3.02735 -0.68359,-4.19922 -0.63476,-1.17188 -2.29492,-1.17188 -3.02734,0 -3.02734,5.41993 l 0,26.2207 -18.26172,0 0,-29.98047 q 0,-8.20313 5.51757,-13.91602 5.51758,-5.76171 13.37891,-5.76171 8.10547,0 14.55078,6.83593 7.17774,-6.83593 14.35547,-6.83593 9.13086,0 14.64844,6.64062 4.3457,5.17578 4.3457,15.08789 l 0,27.92969 z"
           style="font-style:normal;font-variant:normal;font-weight:normal;font-stretch:normal;font-size:100px;font-family:'Bauhaus 93';-inkscape-font-specification:'Bauhaus 93, ';text-align:center;text-anchor:middle"
           id="path4215" />
        <path
           d="m 373.39499,517.95264 -18.26172,0 0,-40.625 q 0,-11.18164 5.85938,-18.21289 3.36914,-4.05274 8.54492,-6.44532 5.22461,-2.39257 10.69336,-2.39257 10.88867,0 18.35937,7.32421 7.4707,7.32422 7.4707,17.96875 0,10.35157 -7.42187,17.8711 -7.42188,7.51953 -17.57813,7.51953 -1.66015,0 -4.88281,-0.3418 l 0,-20.11719 q 2.2461,1.80665 4.49219,1.80665 2.83203,0 4.83398,-2.09961 2.05079,-2.09961 2.05079,-4.98047 0,-2.88086 -2.09961,-4.88282 -2.09961,-2.05078 -5.0293,-2.05078 -7.03125,0 -7.03125,9.7168 l 0,39.94141 z"
           style="font-style:normal;font-variant:normal;font-weight:normal;font-stretch:normal;font-size:100px;font-family:'Bauhaus 93';-inkscape-font-specification:'Bauhaus 93, ';text-align:center;text-anchor:middle"
           id="path4217" />
        <path
           d="m 430.27975,433.28467 0,18.65234 8.20313,0 0,19.28711 -8.20313,0 q 0,5.81055 1.80665,8.00781 1.85546,2.19727 6.73828,2.19727 l 0,19.18945 q -1.41602,0.0488 -2.09961,0.0488 -6.20117,0 -11.71875,-2.88086 -5.46875,-2.88086 -8.78907,-7.8125 -4.19921,-6.29883 -4.19921,-16.69922 l 0,-39.99023 18.26171,0 z"
           style="font-style:normal;font-variant:normal;font-weight:normal;font-stretch:normal;font-size:100px;font-family:'Bauhaus 93';-inkscape-font-specification:'Bauhaus 93, ';text-align:center;text-anchor:middle"
           id="path4219" />
        <path
           d="m 495.26999,478.54834 -27.68555,0 q -0.63476,-2.09961 -0.63476,-3.85742 0,-2.44141 0.8789,-4.78516 l 9.27735,0 q -0.97657,-5.41992 -6.10352,-5.41992 -3.41797,0 -5.56641,2.92969 -2.14843,2.88086 -2.14843,7.42187 0,4.73633 2.05078,7.66602 2.09961,2.92969 5.46875,2.92969 2.73437,0 5.27344,-2.73438 l 10.40039,12.5 q -7.27539,5.71289 -16.16211,5.71289 -10.83985,0 -18.21289,-7.27539 -7.37305,-7.27539 -7.37305,-18.01758 0,-10.69336 7.42187,-18.0664 7.47071,-7.37305 18.31055,-7.37305 10.5957,0 17.77344,7.22656 7.22656,7.17774 7.22656,17.72461 0,1.07422 -0.19531,3.41797 z"
           style="font-style:normal;font-variant:normal;font-weight:normal;font-stretch:normal;font-size:100px;font-family:'Bauhaus 93';-inkscape-font-specification:'Bauhaus 93, ';text-align:center;text-anchor:middle"
           id="path4221" />
        <path
           d="m 529.59616,450.76514 0,19.53125 q -1.9043,-1.07422 -3.4668,-1.07422 -4.98046,0 -4.98046,7.61719 l 0,23.0957 -18.26172,0 0,-26.61133 q 0,-10.54687 5.76172,-16.79687 5.76171,-6.29883 15.38085,-6.29883 2.14844,0 5.56641,0.53711 z"
           style="font-style:normal;font-variant:normal;font-weight:normal;font-stretch:normal;font-size:100px;font-family:'Bauhaus 93';-inkscape-font-specification:'Bauhaus 93, ';text-align:center;text-anchor:middle"
           id="path4223" />
      </g>
      <g
         style="font-style:normal;font-weight:normal;font-size:20px;line-height:125%;font-family:sans-serif;text-align:start;letter-spacing:0px;word-spacing:0px;text-anchor:start;fill:#000000;fill-opacity:1;stroke:none;stroke-width:1px;stroke-linecap:butt;stroke-linejoin:miter;stroke-opacity:1"
         id="text4158">
        <path
           d="m 388.08838,514.04608 1.72851,0.22461 q -0.2832,1.78711 -1.45507,2.80274 -1.16211,1.00585 -2.86133,1.00585 -2.12891,0 -3.42774,-1.38671 -1.28906,-1.39649 -1.28906,-3.99414 0,-1.67969 0.55664,-2.93946 0.55664,-1.25976 1.68946,-1.88476 1.14257,-0.63477 2.48046,-0.63477 1.68946,0 2.76368,0.85938 1.07421,0.84961 1.37695,2.42187 l -1.70899,0.26367 q -0.24414,-1.04492 -0.86914,-1.57226 -0.61523,-0.52735 -1.49414,-0.52735 -1.32812,0 -2.1582,0.95703 -0.83008,0.94727 -0.83008,3.00782 0,2.08984 0.80078,3.03711 0.80078,0.94726 2.08985,0.94726 1.03515,0 1.72851,-0.63476 0.69336,-0.63477 0.87891,-1.95313 z"
           style="font-style:normal;font-variant:normal;font-weight:normal;font-stretch:normal;font-family:Arial;-inkscape-font-specification:Arial;text-align:start;text-anchor:start;fill:#000000"
           id="path4226" />
        <path
           d="m 391.28174,517.84491 0,-14.31641 1.75781,0 0,14.31641 -1.75781,0 z"
           style="font-style:normal;font-variant:normal;font-weight:normal;font-stretch:normal;font-family:Arial;-inkscape-font-specification:Arial;text-align:start;text-anchor:start;fill:#000000"
           id="path4228" />
        <path
           d="m 402.5708,517.84491 0,-1.52344 q -1.21094,1.75781 -3.29101,1.75781 -0.91797,0 -1.71875,-0.35156 -0.79102,-0.35156 -1.18165,-0.8789 -0.38085,-0.53711 -0.5371,-1.3086 -0.10743,-0.51758 -0.10743,-1.64062 l 0,-6.42578 1.75782,0 0,5.75195 q 0,1.37695 0.10742,1.85547 0.16601,0.69336 0.70312,1.09375 0.53711,0.39062 1.32813,0.39062 0.79101,0 1.48437,-0.40039 0.69336,-0.41015 0.97657,-1.10351 0.29296,-0.70313 0.29296,-2.03125 l 0,-5.55664 1.75782,0 0,10.37109 -1.57227,0 z"
           style="font-style:normal;font-variant:normal;font-weight:normal;font-stretch:normal;font-family:Arial;-inkscape-font-specification:Arial;text-align:start;text-anchor:start;fill:#000000"
           id="path4230" />
        <path
           d="m 406.20361,514.74921 1.73828,-0.27344 q 0.14649,1.04492 0.81055,1.60156 0.67383,0.55664 1.875,0.55664 1.21094,0 1.79688,-0.48828 0.58593,-0.49805 0.58593,-1.16211 0,-0.5957 -0.51757,-0.9375 -0.36133,-0.23437 -1.79688,-0.5957 -1.93359,-0.48828 -2.68555,-0.83985 -0.74218,-0.36132 -1.13281,-0.98632 -0.38086,-0.63477 -0.38086,-1.39649 0,-0.69336 0.3125,-1.27929 0.32227,-0.59571 0.86914,-0.98633 0.41016,-0.30274 1.11328,-0.50782 0.71289,-0.21484 1.52344,-0.21484 1.2207,0 2.13867,0.35156 0.92774,0.35157 1.36719,0.95703 0.43945,0.59571 0.60547,1.60157 l -1.71875,0.23437 q -0.11719,-0.80078 -0.68359,-1.25 -0.55664,-0.44922 -1.58204,-0.44922 -1.21093,0 -1.72851,0.40039 -0.51758,0.40039 -0.51758,0.9375 0,0.3418 0.21484,0.61524 0.21485,0.2832 0.67383,0.46875 0.26367,0.0976 1.55274,0.44922 1.86523,0.49804 2.59765,0.82031 0.74219,0.3125 1.16211,0.91797 0.41992,0.60547 0.41992,1.5039 0,0.87891 -0.51757,1.66016 -0.50782,0.77149 -1.47461,1.20117 -0.9668,0.41992 -2.1875,0.41992 -2.02149,0 -3.08594,-0.83984 -1.05469,-0.83984 -1.34766,-2.49023 z"
           style="font-style:normal;font-variant:normal;font-weight:normal;font-stretch:normal;font-family:Arial;-inkscape-font-specification:Arial;text-align:start;text-anchor:start;fill:#000000"
           id="path4232" />
        <path
           d="m 420.74463,516.27264 0.25391,1.55274 q -0.74219,0.15625 -1.32813,0.15625 -0.95703,0 -1.48437,-0.30274 -0.52735,-0.30273 -0.74219,-0.79101 -0.21485,-0.49805 -0.21485,-2.08008 l 0,-5.9668 -1.28906,0 0,-1.36718 1.28906,0 0,-2.56836 1.74805,-1.05469 0,3.62305 1.76758,0 0,1.36718 -1.76758,0 0,6.06446 q 0,0.75195 0.0879,0.96679 0.0977,0.21485 0.30274,0.3418 0.21484,0.12695 0.60546,0.12695 0.29297,0 0.77149,-0.0684 z"
           style="font-style:normal;font-variant:normal;font-weight:normal;font-stretch:normal;font-family:Arial;-inkscape-font-specification:Arial;text-align:start;text-anchor:start;fill:#000000"
           id="path4234" />
        <path
           d="m 429.55322,514.50507 1.81641,0.22461 q -0.42969,1.59179 -1.5918,2.4707 -1.16211,0.8789 -2.96875,0.8789 -2.27539,0 -3.61328,-1.39648 -1.32812,-1.40625 -1.32812,-3.93555 0,-2.61718 1.34765,-4.0625 1.34766,-1.44531 3.4961,-1.44531 2.08007,0 3.39843,1.41602 1.31836,1.41601 1.31836,3.98437 0,0.15625 -0.01,0.46875 l -7.73438,0 q 0.0977,1.70899 0.9668,2.61719 0.86914,0.9082 2.16797,0.9082 0.96679,0 1.65039,-0.50781 0.68359,-0.50781 1.08398,-1.62109 z m -5.77148,-2.8418 5.79101,0 q -0.11718,-1.30859 -0.66406,-1.96289 -0.83984,-1.01563 -2.17773,-1.01563 -1.21094,0 -2.04102,0.81055 -0.82031,0.81055 -0.9082,2.16797 z"
           style="font-style:normal;font-variant:normal;font-weight:normal;font-stretch:normal;font-family:Arial;-inkscape-font-specification:Arial;text-align:start;text-anchor:start;fill:#000000"
           id="path4236" />
        <path
           d="m 433.56689,517.84491 0,-10.37109 1.58204,0 0,1.57226 q 0.60546,-1.10351 1.11328,-1.45508 0.51758,-0.35156 1.13281,-0.35156 0.88867,0 1.80664,0.56641 l -0.60547,1.63086 q -0.64453,-0.38086 -1.28906,-0.38086 -0.57617,0 -1.03516,0.35156 -0.45898,0.3418 -0.65429,0.95703 -0.29297,0.9375 -0.29297,2.05078 l 0,5.42969 -1.75782,0 z"
           style="font-style:normal;font-variant:normal;font-weight:normal;font-stretch:normal;font-family:Arial;-inkscape-font-specification:Arial;text-align:start;text-anchor:start;fill:#000000"
           id="path4238" />
        <path
           d="m 440.27588,505.54999 0,-2.02149 1.75781,0 0,2.02149 -1.75781,0 z m 0,12.29492 0,-10.37109 1.75781,0 0,10.37109 -1.75781,0 z"
           style="font-style:normal;font-variant:normal;font-weight:normal;font-stretch:normal;font-family:Arial;-inkscape-font-specification:Arial;text-align:start;text-anchor:start;fill:#000000"
           id="path4240" />
        <path
           d="m 444.71924,517.84491 0,-10.37109 1.58203,0 0,1.47461 q 1.14258,-1.70899 3.30078,-1.70899 0.9375,0 1.71875,0.3418 0.79102,0.33203 1.18164,0.8789 0.39063,0.54688 0.54688,1.29883 0.0976,0.48828 0.0976,1.70899 l 0,6.37695 -1.75781,0 0,-6.30859 q 0,-1.07422 -0.20508,-1.60157 -0.20508,-0.53711 -0.73242,-0.84961 -0.51758,-0.32226 -1.2207,-0.32226 -1.12305,0 -1.94336,0.71289 -0.81055,0.71289 -0.81055,2.70508 l 0,5.66406 -1.75781,0 z"
           style="font-style:normal;font-variant:normal;font-weight:normal;font-stretch:normal;font-family:Arial;-inkscape-font-specification:Arial;text-align:start;text-anchor:start;fill:#000000"
           id="path4242" />
        <path
           d="m 455.52979,518.70428 1.70898,0.25391 q 0.10742,0.79102 0.5957,1.15234 0.6543,0.48829 1.78711,0.48829 1.22071,0 1.88477,-0.48829 0.66406,-0.48828 0.89844,-1.36718 0.13671,-0.53711 0.12695,-2.25586 -1.15235,1.35742 -2.8711,1.35742 -2.13867,0 -3.31054,-1.54297 -1.17188,-1.54297 -1.17188,-3.70117 0,-1.48438 0.53711,-2.73438 0.53711,-1.25976 1.55274,-1.94336 1.02539,-0.68359 2.40234,-0.68359 1.83594,0 3.02734,1.48438 l 0,-1.25 1.6211,0 0,8.96484 q 0,2.42187 -0.49805,3.42773 -0.48828,1.01563 -1.5625,1.60157 -1.06445,0.58593 -2.62695,0.58593 -1.85547,0 -2.99805,-0.83984 -1.14258,-0.83008 -1.10351,-2.50977 z m 1.45507,-6.23046 q 0,2.04101 0.81055,2.97851 0.81055,0.9375 2.03125,0.9375 1.21094,0 2.03125,-0.92773 0.82031,-0.9375 0.82031,-2.92969 0,-1.9043 -0.84961,-2.87109 -0.83984,-0.9668 -2.03125,-0.9668 -1.17187,0 -1.99218,0.95703 -0.82032,0.94727 -0.82032,2.82227 z"
           style="font-style:normal;font-variant:normal;font-weight:normal;font-stretch:normal;font-family:Arial;-inkscape-font-specification:Arial;text-align:start;text-anchor:start;fill:#000000"
           id="path4244" />
      </g>
    </g>
  </g>
</svg>
